<?xml version="1.0" encoding="UTF-8" standalone="no"?>
<svg
   width="64"
   height="64"
   viewBox="0 0 16.933 16.933"
   version="1.1"
   id="svg5"
   sodipodi:docname="zen-browser.svg"
   inkscape:version="1.3.2 (091e20ef0f, 2023-11-25, custom)"
   xmlns:inkscape="http://www.inkscape.org/namespaces/inkscape"
   xmlns:sodipodi="http://sodipodi.sourceforge.net/DTD/sodipodi-0.dtd"
   xmlns="http://www.w3.org/2000/svg"
   xmlns:svg="http://www.w3.org/2000/svg">
  <defs
     id="defs5" />
  <sodipodi:namedview
     id="namedview5"
     pagecolor="#ffffff"
     bordercolor="#000000"
     borderopacity="0.25"
     inkscape:showpageshadow="2"
     inkscape:pageopacity="0.0"
     inkscape:pagecheckerboard="0"
     inkscape:deskcolor="#d1d1d1"
     inkscape:zoom="13.703125"
     inkscape:cx="34.736602"
     inkscape:cy="41.340935"
     inkscape:window-width="1920"
     inkscape:window-height="1048"
     inkscape:window-x="0"
     inkscape:window-y="32"
     inkscape:window-maximized="1"
     inkscape:current-layer="svg5" />
  <path
     fill="#763983"
     d="m 8.4659523,0.6390106 a 7.8192736,7.8192736 0 0 1 7.8280387,7.8269439 c 0,4.3304045 -3.49873,7.8280395 -7.8280387,7.8280395 -4.3293091,0 -7.82694386,-3.497635 -7.82694386,-7.8280395 A 7.8192736,7.8192736 0 0 1 8.4659523,0.6390106 Z"
     id="path1"
     style="fill:#b374f0;fill-opacity:0.955636;stroke-width:1.09575" />
  <path
     fill="#fff"
     d="m 8.4772225,1.8285316 a 6.6053728,6.6053728 0 0 1 6.6129795,6.6129789 c 0,3.6574575 -2.955521,6.6118925 -6.6129795,6.6118925 -3.6574575,0 -6.6118922,-2.955522 -6.6118922,-6.6118925 A 6.6053728,6.6053728 0 0 1 8.4772225,1.827445 Z"
     opacity=".05"
     id="path2"
     style="opacity:0.5;mix-blend-mode:color-burn;fill:#000000;fill-opacity:1;stroke-width:1.08658" />
  <g
     stroke-width="0.265"
     id="g5"
     transform="matrix(0.49239964,0,0,0.49239964,-0.32341433,0.28650107)">
    <g
       id="f"
       transform="matrix(0.31689435,0,0,0.31689435,5.1699579,3.9217016)"
       inkscape:label="f">
      <path
         fill="#ff8619"
         d="m 54.616311,16.519491 c 0.04688,-0.0065 0.09668,-0.0065 0.143561,0 z"
         id="path6"
         style="fill:#ffa216;fill-opacity:1;stroke-width:1.87019"
         sodipodi:nodetypes="ccc" />
      <path
         class="i"
         d="m 62.797692,57.612048 c -0.0536,3.2127 -2.7418,5.7593 -5.955,5.7593 h -24.1527 c -0.9392,0 -1.5768,-0.9548 -1.2169,-1.8223 l 0.0082,-0.0197 c 1.5882,-3.8346 4.1653,-7.0703 7.456,-9.4308 0.4093,-0.2936 0.9032,-0.4459 1.407,-0.4459 h 16.5948 c 3.2694,0 5.9133,2.6775 5.8585,5.9594 z"
         id="path3-6-1"
         style="fill:#ffcb34;fill-opacity:1;stroke-width:0px" />
      <path
         class="i"
         d="m 63.4367,57.6782 c -0.0536,3.2127 -2.7418,5.7593 -5.955,5.7593 H 33.329 c -0.9392,0 -1.5768,-0.9548 -1.2169,-1.8223 l 0.0082,-0.0197 c 1.5882,-3.8346 4.1653,-7.0703 7.456,-9.4308 0.4093,-0.2936 0.9032,-0.4459 1.407,-0.4459 h 16.5948 c 3.2694,0 5.9133,2.6775 5.8585,5.9594 z"
         id="path3-6"
         style="fill:#ff8518;fill-opacity:1;stroke-width:0px" />
      <path
         class="i"
         d="m 47.325034,16.60131 c 0.9392,0 1.5768,0.9548 1.2169,1.8223 l -0.0082,0.0197 c -1.5882,3.8346 -4.1653,7.0703 -7.456,9.4308 -0.4093,0.2936 -0.9032,0.4459 -1.407,0.4459 h -16.4984 c -3.2132,0 -5.9014,-2.5466 -5.955,-5.7593 -0.0547,-3.2819 2.5892,-5.9594 5.8585,-5.9594 h 24.2491 z"
         id="path4-7-9"
         style="fill:#ff8518;fill-opacity:1;stroke-width:0px" />
      <path
         class="i"
         d="m 46.671,16.5625 c 0.9392,0 1.5768,0.9548 1.2169,1.8223 l -0.0082,0.0197 c -1.5882,3.8346 -4.1653,7.0703 -7.456,9.4308 -0.4093,0.2936 -0.9032,0.4459 -1.407,0.4459 H 22.5183 c -3.2132,0 -5.9014,-2.5466 -5.955,-5.7593 -0.0547,-3.2819 2.5892,-5.9594 5.8585,-5.9594 h 24.2491 z"
         id="path4-7"
         style="fill:#ffcb34;fill-opacity:1;stroke-width:0px" />
      <path
         class="i"
         d="m 22.4208,63.4375 c -0.7473,0 -1.5065,-0.1438 -2.2398,-0.4475 -2.9896,-1.2383 -4.4093,-4.6657 -3.171,-7.6551 1.9045,-4.5977 4.6342,-8.7196 8.1136,-12.251 3.6044,-3.6585 7.8551,-6.5172 12.6343,-8.4968 6.5691,-2.7211 11.6853,-7.8373 14.4061,-14.4061 1.2383,-2.9897 4.6658,-4.4091 7.6551,-3.171 2.9896,1.2383 4.4093,4.6657 3.171,7.6551 -1.9045,4.5977 -4.6342,8.7196 -8.1136,12.251 -3.6044,3.6585 -7.8551,6.5172 -12.6343,8.4968 -6.5691,2.7211 -11.6853,7.8373 -14.4061,14.4061 -0.9345,2.2562 -3.1164,3.6185 -5.4153,3.6185 z"
         id="path5-5"
         style="fill:#ff3843;fill-opacity:1;stroke-width:0px" />
      <path
         class="i"
         d="m 21.890447,62.907038 c -0.7473,0 -1.5065,-0.1438 -2.2398,-0.4475 -2.9896,-1.2383 -4.4093,-4.6657 -3.171,-7.6551 1.9045,-4.5977 4.6342,-8.7196 8.1136,-12.251 3.6044,-3.6585 7.8551,-6.5172 12.6343,-8.4968 6.5691,-2.7211 11.6853,-7.8373 14.4061,-14.4061 1.2383,-2.9897 4.6658,-4.4091 7.6551,-3.171 2.9896,1.2383 4.4093,4.6657 3.171,7.6551 -1.9045,4.5977 -4.6342,8.7196 -8.1136,12.251 -3.6044,3.6585 -7.8551,6.5172 -12.6343,8.4968 -6.5691,2.7211 -11.6853,7.8373 -14.4061,14.4061 -0.9345,2.2562 -3.1164,3.6185 -5.4153,3.6185 z"
         id="path5-5-5"
         style="fill:#ffa216;fill-opacity:1;stroke-width:0px" />
    </g>
  </g>
</svg>
